<?xml version="1.0" encoding="UTF-8" standalone="no"?>
<!-- Created with Inkscape (http://www.inkscape.org/) -->

<svg
   xmlns:dc="http://purl.org/dc/elements/1.1/"
   xmlns:cc="http://creativecommons.org/ns#"
   xmlns:rdf="http://www.w3.org/1999/02/22-rdf-syntax-ns#"
   xmlns:svg="http://www.w3.org/2000/svg"
   xmlns="http://www.w3.org/2000/svg"
   xmlns:xlink="http://www.w3.org/1999/xlink"
   xmlns:sodipodi="http://sodipodi.sourceforge.net/DTD/sodipodi-0.dtd"
   xmlns:inkscape="http://www.inkscape.org/namespaces/inkscape"
   version="1.0"
   width="580"
   height="580"
   id="svg2"
   sodipodi:version="0.32"
   inkscape:version="0.48.0 r9654"
   sodipodi:docname="tourist_view_point.svg"
   inkscape:output_extension="org.inkscape.output.svg.inkscape">
  <metadata
     id="metadata2975">
    <rdf:RDF>
      <cc:Work
         rdf:about="">
        <dc:format>image/svg+xml</dc:format>
        <dc:type
           rdf:resource="http://purl.org/dc/dcmitype/StillImage" />
        <cc:license
           rdf:resource="http://web.resource.org/cc/PublicDomain" />
        <dc:language>en</dc:language>
      </cc:Work>
    </rdf:RDF>
  </metadata>
  <sodipodi:namedview
     inkscape:window-height="1005"
     inkscape:window-width="1280"
     inkscape:pageshadow="2"
     inkscape:pageopacity="0.0"
     guidetolerance="10.0"
     gridtolerance="10.0"
     objecttolerance="10.0"
     borderopacity="1.0"
     bordercolor="#666666"
     pagecolor="#ffffff"
     id="base"
     inkscape:zoom="0.17969975"
     inkscape:cx="-1661.1133"
     inkscape:cy="1603.0305"
     inkscape:window-x="0"
     inkscape:window-y="0"
     inkscape:current-layer="svg2"
     showgrid="false"
     inkscape:window-maximized="0" />
  <defs
     id="defs4">
    <inkscape:perspective
       sodipodi:type="inkscape:persp3d"
       inkscape:vp_x="0 : 290 : 1"
       inkscape:vp_y="0 : 1000 : 0"
       inkscape:vp_z="580 : 290 : 1"
       inkscape:persp3d-origin="290 : 193.33333 : 1"
       id="perspective3579" />
  </defs>
  <g
     id="g1327">
    <path
       d="M 66.275,1.768 C 24.94,1.768 1.704,23.139 1.704,66.804 L 1.704,516.927 C 1.704,557.771 22.599,579.156 63.896,579.156 L 515.92,579.156 C 557.227,579.156 578.149,558.841 578.149,516.927 L 578.149,66.804 C 578.149,24.203 557.227,1.768 514.628,1.768 C 514.624,1.768 66.133,1.625 66.275,1.768 z "
       style="fill:none;stroke:none;stroke-width:3.40799999"
       id="path1329" />
  </g>
  <path
     sodipodi:nodetypes="cszss"
     id="use6027"
     d="m 264.50523,235.49926 c -0.16658,0.78886 -42.10316,-33.79044 -85.91597,-79.79102 -9.98712,-10.48582 -67.67963,-60.980315 -14.46661,-91.66394 54.45289,-31.398539 69.60929,44.6705 73.90403,61.46637 15.13669,59.19661 26.64513,109.19973 26.47855,109.98859 z"
     style="fill:#734A08;fill-opacity:1;stroke:#734A08;stroke-width:13.05850983;stroke-linecap:round;stroke-linejoin:round;stroke-miterlimit:4;stroke-opacity:1;stroke-dasharray:none"
     inkscape:connector-curvature="0" />
  <use
     x="0"
     y="0"
     xlink:href="#use6027"
     id="use6029"
     transform="matrix(0.5,-0.8660254,0.8660254,0.5,-99.608513,395.17405)"
     width="580"
     height="580" />
  <use
     x="0"
     y="0"
     xlink:href="#use6029"
     id="use6031"
     transform="matrix(0.5,-0.8660254,0.8660254,0.5,-100.02947,397.18544)"
     width="580"
     height="580" />
  <use
     x="0"
     y="0"
     xlink:href="#use6031"
     id="use6033"
     transform="matrix(0.5,-0.8660254,0.8660254,0.5,-100.38597,396.46523)"
     width="580"
     height="580" />
  <use
     x="0"
     y="0"
     xlink:href="#use6033"
     id="use6035"
     transform="matrix(0.5,-0.8660254,0.8660254,0.5,-102.40499,396.28914)"
     width="580"
     height="580" />
  <path
     sodipodi:nodetypes="cszss"
     id="use6039"
     d="m 323.1887,233.94211 c -0.76647,0.25017 8.2118,-53.35763 26.14307,-114.30092 4.08742,-13.89201 18.9707,-89.10244 72.15,-58.360413 54.41838,31.458315 -3.88114,82.618663 -16.27943,94.735943 -43.69743,42.70707 -81.24718,77.67522 -82.01364,77.92539 z"
     style="fill:#734A08;fill-opacity:1;stroke:#734A08;stroke-width:13.05850983;stroke-linecap:round;stroke-linejoin:round;stroke-miterlimit:4;stroke-opacity:1;stroke-dasharray:none"
     inkscape:connector-curvature="0" />
</svg>
